<mxfile host="app.diagrams.net" modified="2024-02-23T22:42:53.785Z" agent="Mozilla/5.0 (Windows NT 10.0; Win64; x64; rv:109.0) Gecko/20100101 Firefox/113.0" etag="J6f_hYAiYsZna_aHM1eu" version="23.1.5" type="github">
  <diagram name="Page-1" id="xHWtxio63Q__qenesXCj">
    <mxGraphModel dx="1366" dy="737" grid="1" gridSize="10" guides="1" tooltips="1" connect="1" arrows="1" fold="1" page="1" pageScale="1" pageWidth="99900" pageHeight="99900" math="0" shadow="0">
      <root>
        <mxCell id="0" />
        <mxCell id="1" parent="0" />
        <mxCell id="_evyA89j4Kxm5VmDfR4r-15" style="edgeStyle=orthogonalEdgeStyle;rounded=0;orthogonalLoop=1;jettySize=auto;html=1;entryX=0;entryY=0.5;entryDx=0;entryDy=0;" parent="1" source="_evyA89j4Kxm5VmDfR4r-7" target="_evyA89j4Kxm5VmDfR4r-19" edge="1">
          <mxGeometry relative="1" as="geometry">
            <mxPoint x="2666" y="1600" as="targetPoint" />
          </mxGeometry>
        </mxCell>
        <mxCell id="_evyA89j4Kxm5VmDfR4r-7" value="&lt;font face=&quot;Courier New&quot;&gt;Circuit Board&lt;br&gt;&lt;/font&gt;" style="rounded=0;whiteSpace=wrap;html=1;fillColor=#dae8fc;strokeColor=#6c8ebf;" parent="1" vertex="1">
          <mxGeometry x="2410" y="1530" width="120" height="60" as="geometry" />
        </mxCell>
        <mxCell id="_evyA89j4Kxm5VmDfR4r-13" value="" style="edgeStyle=orthogonalEdgeStyle;rounded=0;orthogonalLoop=1;jettySize=auto;html=1;entryX=0;entryY=0.5;entryDx=0;entryDy=0;" parent="1" source="_evyA89j4Kxm5VmDfR4r-8" target="_evyA89j4Kxm5VmDfR4r-19" edge="1">
          <mxGeometry relative="1" as="geometry">
            <mxPoint x="2666" y="1600" as="targetPoint" />
          </mxGeometry>
        </mxCell>
        <mxCell id="_evyA89j4Kxm5VmDfR4r-8" value="&lt;font face=&quot;Courier New&quot;&gt;2x Resistor&lt;/font&gt;" style="rounded=0;whiteSpace=wrap;html=1;fillColor=#dae8fc;strokeColor=#6c8ebf;" parent="1" vertex="1">
          <mxGeometry x="2410" y="1370" width="120" height="60" as="geometry" />
        </mxCell>
        <mxCell id="_evyA89j4Kxm5VmDfR4r-16" style="edgeStyle=orthogonalEdgeStyle;rounded=0;orthogonalLoop=1;jettySize=auto;html=1;entryX=0;entryY=0.5;entryDx=0;entryDy=0;" parent="1" source="_evyA89j4Kxm5VmDfR4r-9" target="_evyA89j4Kxm5VmDfR4r-19" edge="1">
          <mxGeometry relative="1" as="geometry">
            <mxPoint x="2666" y="1600" as="targetPoint" />
          </mxGeometry>
        </mxCell>
        <mxCell id="_evyA89j4Kxm5VmDfR4r-9" value="&lt;font style=&quot;font-size: 10px;&quot; face=&quot;Courier New&quot;&gt;2x &lt;br&gt;1x Red Alloy Wire &lt;br&gt;&lt;/font&gt;" style="rounded=0;whiteSpace=wrap;html=1;fillColor=#dae8fc;strokeColor=#6c8ebf;" parent="1" vertex="1">
          <mxGeometry x="2410" y="1800" width="120" height="60" as="geometry" />
        </mxCell>
        <mxCell id="_evyA89j4Kxm5VmDfR4r-17" style="edgeStyle=orthogonalEdgeStyle;rounded=0;orthogonalLoop=1;jettySize=auto;html=1;entryX=0;entryY=0.5;entryDx=0;entryDy=0;" parent="1" source="_evyA89j4Kxm5VmDfR4r-10" target="_evyA89j4Kxm5VmDfR4r-19" edge="1">
          <mxGeometry relative="1" as="geometry">
            <mxPoint x="2666" y="1600" as="targetPoint" />
          </mxGeometry>
        </mxCell>
        <mxCell id="_evyA89j4Kxm5VmDfR4r-10" value="&lt;font face=&quot;Courier New&quot;&gt;2x Vacuum Tube&lt;br&gt;&lt;/font&gt;" style="rounded=0;whiteSpace=wrap;html=1;fillColor=#dae8fc;strokeColor=#6c8ebf;" parent="1" vertex="1">
          <mxGeometry x="2410" y="1880" width="120" height="60" as="geometry" />
        </mxCell>
        <mxCell id="_evyA89j4Kxm5VmDfR4r-19" value="Circuit Assembler" style="swimlane;whiteSpace=wrap;html=1;fillColor=#e1d5e7;strokeColor=#9673a6;" parent="1" vertex="1">
          <mxGeometry x="2710" y="1490" width="280" height="140" as="geometry">
            <mxRectangle x="2710" y="1470" width="140" height="30" as="alternateBounds" />
          </mxGeometry>
        </mxCell>
        <mxCell id="_evyA89j4Kxm5VmDfR4r-24" value="&lt;font face=&quot;Courier New&quot;&gt;Total: 3200 EU&lt;br&gt;Speed: 16 EU/t&lt;br&gt;Time: &amp;nbsp; 10 s&lt;br&gt;&lt;/font&gt;" style="shape=tape;whiteSpace=wrap;html=1;fillColor=#ffe6cc;strokeColor=#d79b00;size=0.2222222222222222;" parent="_evyA89j4Kxm5VmDfR4r-19" vertex="1">
          <mxGeometry x="10" y="30" width="110" height="90" as="geometry" />
        </mxCell>
        <mxCell id="_evyA89j4Kxm5VmDfR4r-25" value="&lt;font face=&quot;Courier New&quot;&gt;2x Electronic Circuit&lt;br&gt;&lt;/font&gt;" style="rounded=1;whiteSpace=wrap;html=1;fillColor=#d5e8d4;strokeColor=#82b366;arcSize=28;" parent="_evyA89j4Kxm5VmDfR4r-19" vertex="1">
          <mxGeometry x="150" y="45" width="120" height="60" as="geometry" />
        </mxCell>
        <mxCell id="_evyA89j4Kxm5VmDfR4r-42" style="edgeStyle=orthogonalEdgeStyle;rounded=0;orthogonalLoop=1;jettySize=auto;html=1;entryX=0;entryY=0.5;entryDx=0;entryDy=0;" parent="1" source="_evyA89j4Kxm5VmDfR4r-27" target="_evyA89j4Kxm5VmDfR4r-41" edge="1">
          <mxGeometry relative="1" as="geometry" />
        </mxCell>
        <mxCell id="_evyA89j4Kxm5VmDfR4r-27" value="&lt;font face=&quot;Courier New&quot;&gt;Extractor&lt;/font&gt;" style="swimlane;whiteSpace=wrap;html=1;fillColor=#e1d5e7;strokeColor=#9673a6;" parent="1" vertex="1">
          <mxGeometry x="2080" y="1170" width="280" height="140" as="geometry">
            <mxRectangle x="2710" y="1470" width="140" height="30" as="alternateBounds" />
          </mxGeometry>
        </mxCell>
        <mxCell id="_evyA89j4Kxm5VmDfR4r-28" value="&lt;font face=&quot;Courier New&quot;&gt;Total: 4350 EU&lt;br&gt;Speed: 30 EU/t&lt;br&gt;Time: 7.25 s&lt;br&gt;&lt;/font&gt;" style="shape=tape;whiteSpace=wrap;html=1;fillColor=#ffe6cc;strokeColor=#d79b00;size=0.2222222222222222;" parent="_evyA89j4Kxm5VmDfR4r-27" vertex="1">
          <mxGeometry x="10" y="30" width="110" height="90" as="geometry" />
        </mxCell>
        <mxCell id="_evyA89j4Kxm5VmDfR4r-11" value="&lt;font face=&quot;Courier New&quot;&gt;144mB Soldering Alloy&lt;br&gt;&lt;/font&gt;" style="rounded=0;whiteSpace=wrap;html=1;fillColor=#d5e8d4;strokeColor=#82b366;shape=document;boundedLbl=1;" parent="_evyA89j4Kxm5VmDfR4r-27" vertex="1">
          <mxGeometry x="150" y="45" width="120" height="60" as="geometry" />
        </mxCell>
        <mxCell id="_evyA89j4Kxm5VmDfR4r-43" style="edgeStyle=orthogonalEdgeStyle;rounded=0;orthogonalLoop=1;jettySize=auto;html=1;entryX=0;entryY=0.5;entryDx=0;entryDy=0;" parent="1" source="_evyA89j4Kxm5VmDfR4r-41" target="_evyA89j4Kxm5VmDfR4r-19" edge="1">
          <mxGeometry relative="1" as="geometry" />
        </mxCell>
        <mxCell id="_evyA89j4Kxm5VmDfR4r-41" value="&lt;font face=&quot;Courier New&quot;&gt;72mB Soldering Alloy&lt;br&gt;&lt;/font&gt;" style="rounded=0;whiteSpace=wrap;html=1;fillColor=#dae8fc;strokeColor=#6c8ebf;shape=document;boundedLbl=1;" parent="1" vertex="1">
          <mxGeometry x="2410" y="1210" width="120" height="60" as="geometry" />
        </mxCell>
        <mxCell id="_evyA89j4Kxm5VmDfR4r-48" style="edgeStyle=orthogonalEdgeStyle;rounded=0;orthogonalLoop=1;jettySize=auto;html=1;entryX=0;entryY=0.5;entryDx=0;entryDy=0;" parent="1" source="_evyA89j4Kxm5VmDfR4r-45" target="_evyA89j4Kxm5VmDfR4r-8" edge="1">
          <mxGeometry relative="1" as="geometry" />
        </mxCell>
        <mxCell id="_evyA89j4Kxm5VmDfR4r-45" value="&lt;font face=&quot;Courier New&quot;&gt;Assembler&lt;/font&gt;" style="swimlane;whiteSpace=wrap;html=1;fillColor=#e1d5e7;strokeColor=#9673a6;" parent="1" vertex="1">
          <mxGeometry x="2080" y="1330" width="280" height="140" as="geometry">
            <mxRectangle x="2710" y="1470" width="140" height="30" as="alternateBounds" />
          </mxGeometry>
        </mxCell>
        <mxCell id="_evyA89j4Kxm5VmDfR4r-46" value="&lt;font face=&quot;Courier New&quot;&gt;Total: 960 EU&lt;br&gt;Speed: 6 EU/t&lt;br&gt;Time: &amp;nbsp; 8 s&lt;br&gt;&lt;/font&gt;" style="shape=tape;whiteSpace=wrap;html=1;fillColor=#ffe6cc;strokeColor=#d79b00;size=0.2222222222222222;" parent="_evyA89j4Kxm5VmDfR4r-45" vertex="1">
          <mxGeometry x="10" y="30" width="110" height="90" as="geometry" />
        </mxCell>
        <mxCell id="_evyA89j4Kxm5VmDfR4r-47" value="&lt;font face=&quot;Courier New&quot;&gt;4x Resistor&lt;br&gt;&lt;/font&gt;" style="rounded=0;whiteSpace=wrap;html=1;fillColor=#d5e8d4;strokeColor=#82b366;shape=document;boundedLbl=1;size=0;" parent="_evyA89j4Kxm5VmDfR4r-45" vertex="1">
          <mxGeometry x="150" y="45" width="120" height="60" as="geometry" />
        </mxCell>
        <mxCell id="CNj63rIvP56T53jtsU0l-5" style="edgeStyle=orthogonalEdgeStyle;rounded=0;orthogonalLoop=1;jettySize=auto;html=1;entryX=0;entryY=0.5;entryDx=0;entryDy=0;" edge="1" parent="1" source="CNj63rIvP56T53jtsU0l-1" target="_evyA89j4Kxm5VmDfR4r-7">
          <mxGeometry relative="1" as="geometry" />
        </mxCell>
        <mxCell id="CNj63rIvP56T53jtsU0l-1" value="&lt;font face=&quot;Courier New&quot;&gt;Assembler&lt;/font&gt;" style="swimlane;whiteSpace=wrap;html=1;fillColor=#e1d5e7;strokeColor=#9673a6;" vertex="1" parent="1">
          <mxGeometry x="2080" y="1490" width="280" height="140" as="geometry">
            <mxRectangle x="2710" y="1470" width="140" height="30" as="alternateBounds" />
          </mxGeometry>
        </mxCell>
        <mxCell id="CNj63rIvP56T53jtsU0l-2" value="&lt;font face=&quot;Courier New&quot;&gt;Total: 1400 EU&lt;br&gt;Speed:&amp;nbsp; 7 EU/t&lt;br&gt;Time: &amp;nbsp; 10 s&lt;br&gt;&lt;/font&gt;" style="shape=tape;whiteSpace=wrap;html=1;fillColor=#ffe6cc;strokeColor=#d79b00;size=0.2222222222222222;" vertex="1" parent="CNj63rIvP56T53jtsU0l-1">
          <mxGeometry x="10" y="30" width="110" height="90" as="geometry" />
        </mxCell>
        <mxCell id="CNj63rIvP56T53jtsU0l-3" value="&lt;font face=&quot;Courier New&quot;&gt;Circuit Board&lt;br&gt;&lt;/font&gt;" style="rounded=0;whiteSpace=wrap;html=1;fillColor=#d5e8d4;strokeColor=#82b366;shape=document;boundedLbl=1;size=0;" vertex="1" parent="CNj63rIvP56T53jtsU0l-1">
          <mxGeometry x="150" y="45" width="120" height="60" as="geometry" />
        </mxCell>
      </root>
    </mxGraphModel>
  </diagram>
</mxfile>
